<?xml version="1.0" encoding="UTF-8" standalone="no"?>
<!DOCTYPE svg PUBLIC "-//W3C//DTD SVG 1.1//EN" "http://www.w3.org/Graphics/SVG/1.1/DTD/svg11.dtd">
<!-- Created with Vectornator (http://vectornator.io/) -->
<svg height="1024.0px" stroke-miterlimit="10" style="fill-rule:nonzero;clip-rule:evenodd;stroke-linecap:round;stroke-linejoin:round;" version="1.1" viewBox="0 0 1024 1024" width="1024.0px" xml:space="preserve" xmlns="http://www.w3.org/2000/svg" xmlns:xlink="http://www.w3.org/1999/xlink">
<defs/>
<g id="Layer-1">
<path d="M216.42 507.308L298.992 507.308L298.992 925.957C298.992 925.957 299.58 964.114 258.332 964.32C218.037 964.522 216.42 925.957 216.42 925.957L216.42 507.308Z" fill="#2584fc" fill-rule="nonzero" opacity="1" stroke="none"/>
<path d="M623.719 507.281C623.719 394.812 532.563 303.656 420.094 303.656C307.625 303.656 216.438 394.812 216.438 507.281C216.437 619.75 307.625 710.938 420.094 710.938C532.562 710.938 623.719 619.75 623.719 507.281M299.5 507.281C299.5 440.689 353.501 386.719 420.094 386.719C486.686 386.719 540.656 440.689 540.656 507.281M540.656 507.281C540.656 573.874 486.686 627.875 420.094 627.875C353.501 627.875 299.5 573.874 299.5 507.281" fill="#fd2b25" fill-rule="nonzero" opacity="1" stroke="none"/>
<path d="M710.496 95.9884C710.496 95.9884 710.116 53.7093 751.989 53.7915C793.669 53.8733 792.503 95.9884 792.503 95.9884L792.503 507.308L710.496 507.308L710.496 95.9884Z" fill="#01ad46" fill-rule="nonzero" opacity="1" stroke="none"/>
<path d="M792.719 507.281C792.719 394.812 701.563 303.656 589.094 303.656C476.625 303.656 385.438 394.812 385.438 507.281C385.437 619.75 476.625 710.938 589.094 710.938C701.562 710.938 792.719 619.75 792.719 507.281M468.5 507.281C468.5 440.689 522.501 386.719 589.094 386.719C655.686 386.719 709.656 440.689 709.656 507.281M709.656 507.281C709.656 573.874 655.686 627.875 589.094 627.875C522.501 627.875 468.5 573.874 468.5 507.281" fill="#feba01" fill-rule="nonzero" opacity="1" stroke="none"/>
</g>
</svg>
